<?xml version="1.0" standalone="no"?><!DOCTYPE svg PUBLIC "-//W3C//DTD SVG 1.1//EN" "http://www.w3.org/Graphics/SVG/1.1/DTD/svg11.dtd"><svg xmlns:xlink="http://www.w3.org/1999/xlink" xmlns="http://www.w3.org/2000/svg" version="1.1" width="200" height="200" viewBox="0 0 200 200"><defs><style type="text/css"><![CDATA[
@font-face {
  font-family: "ifont";
  src: url("//at.alicdn.com/t/font_1442373896_4754455.eot?#iefix") format("embedded-opentype"), url("//at.alicdn.com/t/font_1442373896_4754455.woff") format("woff"), url("//at.alicdn.com/t/font_1442373896_4754455.ttf") format("truetype"), url("//at.alicdn.com/t/font_1442373896_4754455.svg#ifont") format("svg");
}

]]></style></defs><g class="transform-group"><g transform="scale(0.1953125, 0.1953125)"><path d="M547.434 838.154v-765.375h-130.165v895.539h505.042v-130.165zM297.517 940.55h-161.406v27.769h189.172v-112.811h-27.769zM281.893 687.337c-15.274-7.809-32.454-11.628-51.717-11.628-19.093 0-36.098 3.645-51.027 11.106-14.928 7.462-26.725 18.223-35.058 32.281s-12.668 29.85-12.668 47.554c0 26.902 8.851 48.77 26.725 65.603 17.876 17.010 42.524 25.513 74.107 25.513 16.66 0 32.454-3.645 47.554-10.934 14.928-7.289 26.725-17.876 35.403-32.106 8.677-14.059 13.015-30.025 13.015-48.075 0-16.487-3.994-31.934-11.804-46.167s-19.263-25.34-34.538-33.149zM286.929 813.165c-13.19 12.324-31.239 18.572-54.148 18.572-28.637 0-49.115-6.416-61.265-19.263-12.324-12.842-18.397-28.119-18.397-45.995 0-12.496 3.121-23.776 9.546-34.016 6.416-10.065 15.274-17.701 26.902-22.908 11.628-5.206 24.991-7.809 40.612-7.809 24.473 0 43.387 6.076 56.753 18.397 13.363 12.324 19.957 27.769 19.957 46.859-0.172 18.223-6.769 33.842-19.957 46.167zM325.282 642.038h-85.043v-85.043h-27.769v85.043h-46.859v-149.26h159.671v-27.769h-159.671v-65.952h159.671v-140.578h-27.769v112.811h-57.27v-102.397h-27.769v102.397h-46.859v-112.811h-29.504v411.325h189.172zM325.282 223.773h-85.043v-31.067c0-6.416 0.867-11.106 1.561-14.059 0.867-3.818 1.909-7.638 4.337-11.453s7.809-7.984 13.883-12.842c6.076-4.686 14.059-10.762 25.34-18.223l39.744-25.166v-31.587l-51.89 33.149c-10.065 6.595-18.572 13.538-25.34 20.829-3.121 3.471-6.249 8.503-9.546 15.1-2.431-18.223-8.33-31.757-17.701-40.438s-20.654-13.19-34.191-13.19c-10.412 0-19.957 2.604-28.637 7.984-8.677 5.206-14.059 12.324-17.354 21.172-3.471 8.851-4.513 21.695-4.513 38.703v87.123h189.172v-26.033zM212.474 223.773h-46.859v-61.957c0-14.059 1.39-24.473 7.289-30.892 5.729-6.595 9.546-7.809 14.928-7.809 6.249 0 7.809 0.867 13.015 4.167 5.206 3.296 6.769 8.677 8.503 13.19 2.431 6.416 3.121 15.791 3.121 27.246v56.060z" fill="#272636"></path></g></g></svg>