<?xml version="1.0" standalone="no"?><!DOCTYPE svg PUBLIC "-//W3C//DTD SVG 1.1//EN" "http://www.w3.org/Graphics/SVG/1.1/DTD/svg11.dtd"><svg xmlns:xlink="http://www.w3.org/1999/xlink" xmlns="http://www.w3.org/2000/svg" version="1.1" width="200" height="200" viewBox="0 0 200 200"><defs><style type="text/css"><![CDATA[
@font-face {
  font-family: "ifont";
  src: url("//at.alicdn.com/t/font_1442373896_4754455.eot?#iefix") format("embedded-opentype"), url("//at.alicdn.com/t/font_1442373896_4754455.woff") format("woff"), url("//at.alicdn.com/t/font_1442373896_4754455.ttf") format("truetype"), url("//at.alicdn.com/t/font_1442373896_4754455.svg#ifont") format("svg");
}

]]></style></defs><g class="transform-group"><g transform="scale(0.1953125, 0.1953125)"><path d="M727.082078 504.818437c-34.771945-6.743588-17.872043-25.458835-17.872043-25.458835s34.024931-56.081273-6.733355-96.849792c-50.510394-50.495044-173.252903 6.424316-173.252903 6.424316-46.873564 14.546298-34.453696-6.639211-27.823696-42.694381 0-42.478464-14.551414-114.372887-139.429563-71.90875-124.758422 42.694381-231.874021 192.282305-231.874021 192.282305-74.487481 99.398848-64.62588 176.22663-64.62588 176.22663 18.605753 169.597653 198.817138 216.151945 338.984505 227.169883 147.46354 11.568477 346.486362-50.828642 406.841985-179.014116C871.637382 562.595328 761.97375 511.776919 727.082078 504.818437L727.082078 504.818437zM415.368684 822.183552c-146.392138 6.839779-264.736477-66.561975-264.736477-164.254971 0-97.792257 118.344339-176.221514 264.736477-182.970218 146.490376-6.743588 265.064958 53.607942 265.064958 151.20577C680.432619 723.842803 561.85906 815.534108 415.368684 822.183552L415.368684 822.183552zM386.162502 539.376511c-147.240459 17.2335-130.225947 155.146523-130.225947 155.146523s-1.50733 43.665499 39.476083 65.908082c86.155219 46.663786 174.859493 18.411325 219.687468-39.460734C559.938314 663.077857 533.616832 522.261715 386.162502 539.376511L386.162502 539.376511zM349.025697 732.942041c-27.495214 3.216251-49.641607-12.625552-49.641607-35.631522 0-22.89443 19.678178-46.873564 47.182602-49.747008 31.579229-3.00238 52.126194 15.189957 52.126194 38.193881C398.691863 708.653869 376.410394 729.828121 349.025697 732.942041L349.025697 732.942041zM435.813319 659.002029c-9.307993 6.958482-20.770046 5.996574-25.683962-2.349511-5.131881-8.140401-3.208065-21.188578 6.209422-28.043706 10.914584-8.119935 22.257933-5.785773 27.170826 2.364861C448.443987 639.308501 444.917674 651.828652 435.813319 659.002029L435.813319 659.002029zM798.776957 445.104427c11.867282 0 21.951965-8.773827 23.647583-20.221554 0.214894-0.856507 0.319272-1.600451 0.319272-2.567475C840.726372 260.643252 690.264545 288.466947 690.264545 288.466947c-13.358239 0-24.068162 10.804067-24.068162 24.283056 0 13.269211 10.709923 24.072255 24.068162 24.072255 108.073414-23.852244 84.23038 84.216054 84.23038 84.216054C774.488785 434.404738 785.382902 445.104427 798.776957 445.104427L798.776957 445.104427zM781.237489 157.733441c-52.015677-12.186554-105.519242 0.902556-120.508631 3.776-1.162476 0.109494-2.245134 2.498914-3.312442 2.713808-0.523933 0.104377-0.843204 1.287319-0.843204 1.287319-14.774495 4.180206-25.583678 18.183128-25.583678 34.349319 0 19.259646 15.618723 35.266202 35.092239 35.266202 0 0 18.945491-2.459005 31.783891-7.483438 12.729929-5.126764 120.484072-3.776 174.001963 86.095867 29.200042 65.589834 12.839423 109.510136 10.793834 116.563786 0 0-6.943133 17.054421-6.943133 33.82948 0 19.36914 15.622816 26.366508 34.970466 26.366508 16.176424 0 29.764907-7.167237 33.730219-34.732036l0.214894 0C1002.087433 262.817778 874.327654 179.451068 781.237489 157.733441L781.237489 157.733441zM781.237489 157.733441" fill="#272636"></path></g></g></svg>