<?xml version="1.0" encoding="utf-8"?>
<!DOCTYPE svg PUBLIC "-//W3C//DTD SVG 1.1//EN" "http://www.w3.org/Graphics/SVG/1.1/DTD/svg11.dtd">
<svg style="width:308px;height:308px;" version="1.1" id="图形" xmlns="http://www.w3.org/2000/svg" xmlns:xlink="http://www.w3.org/1999/xlink" x="0px" y="0px" width="1024px" height="1024px" viewBox="0 0 1024 1024" enable-background="new 0 0 1024 1024" xml:space="preserve">
  <path class="svgpath" data-index="path_0" fill="#ecf0f1" d="M512 128c211.2 0 384 172.8 384 384s-172.8 384-384 384-384-172.8-384-384S300.8 128 512 128M512 64C268.8 64 64 268.8 64 512s204.8 448 448 448 448-198.4 448-448S755.2 64 512 64L512 64z" />
<path class="svgpath" data-index="path_1" fill="#ecf0f1" d="M262.4 748.8 768 748.8l0-76.8L262.4 672 262.4 748.8zM262.4 563.2 768 563.2 768 486.4 262.4 486.4 262.4 563.2zM262.4 300.8l0 76.8L768 377.6 768 300.8 262.4 300.8z" />

</svg>
